<?xml version="1.0" encoding="UTF-8"?>
<svg width="85px" height="60px" viewBox="0 0 85 60" version="1.1" xmlns="http://www.w3.org/2000/svg" xmlns:xlink="http://www.w3.org/1999/xlink">
    <title>4B8F101E-7327-4C7E-BD41-F3C699514D73</title>
    <g id="Homepage-updates---March-2022" stroke="none" stroke-width="1" fill="none" fill-rule="evenodd">
        <g id="Homepage-Proposal-2" transform="translate(-15.000000, -13.000000)" fill="#EA118D">
            <path d="M73.5352221,13.1263288 C75.947493,13.1263288 78.0297353,13.9976595 79.7808148,15.739193 C81.5324615,17.4818543 82.4085683,19.5521811 82.4085683,21.9513014 C82.4085683,24.2128134 81.6430381,26.1737304 80.1119776,27.8351803 C81.5624559,29.430557 82.3258656,31.2749669 82.4022066,33.3674511 L82.4085683,33.7184953 L82.4085683,39.6018103 C82.4085683,40.4094126 82.1125633,41.1014015 81.5211203,41.6777768 C80.9296773,42.2552802 80.2389989,42.5434678 79.4507862,42.5434678 C78.6387571,42.5434678 77.9424081,42.2552802 77.3628734,41.6777768 C76.8355081,41.1537992 76.5480886,40.5342733 76.5001889,39.8191991 L76.4930042,39.6018103 L76.4930042,33.7184953 C76.4930042,32.9345797 76.1969991,32.2476666 75.6055561,31.6588839 C75.0753555,31.1315738 74.4249383,30.7988326 73.6690481,30.7988326 C73.1014216,30.7988326 72.6154516,30.5072611 72.2105712,29.9229902 C71.8056907,29.3392832 71.6032505,28.6388348 71.6032505,27.8210811 C71.6032505,27.027578 71.8056907,26.3322054 72.2105712,25.7366551 C72.5786443,25.1952457 73.0137336,24.8999316 73.516265,24.8507125 L73.6690481,24.8433297 L74.1170251,24.8433297 C74.6682068,24.7277162 75.1643839,24.4581395 75.6055561,24.0283958 C76.1969991,23.4520204 76.4930042,22.7594676 76.4930042,21.9513014 C76.4930042,21.1673857 76.1969991,20.4804726 75.6055561,19.8922539 C75.0678807,19.3575096 74.4481925,19.066064 73.7477697,19.0174932 L73.5352221,19.0102078 L70.57744,19.0102078 L70.57744,42.6923554 C70.57744,42.9156868 70.5496541,43.1277388 70.5042893,43.3335871 C71.3364806,44.3331892 72.0217124,45.3893831 72.5639675,46.5005843 L72.7606189,46.9198601 L72.7606189,46.5256464 C72.7606189,45.7411668 73.0503862,45.0542537 73.6304881,44.466035 C74.1573378,43.930778 74.7807283,43.6392858 75.4998074,43.5907108 L75.7184009,43.583425 L78.08474,43.583425 C81.3090401,43.583425 84.0876314,44.7429433 86.4188128,47.0614161 C88.7499942,49.3804529 89.9158684,52.1438965 89.9158684,55.350619 C89.9158684,58.5804641 88.7499942,61.3495474 86.4188128,63.6561769 C84.0876314,65.9633703 82.3070647,67.0478809 81.0776798,66.9091447 C79.9313124,67.0409441 79.3294695,66.6306785 79.2721512,65.6797985 L79.267626,65.5251671 L79.267626,62.4103714 C79.267626,61.6258918 79.6158005,61.1876886 80.3115825,61.0951978 C80.7521877,60.9107802 81.4774567,60.3107182 82.4868225,59.2955757 C83.4961884,58.2804331 84.0003042,56.9652596 84.0003042,55.350619 C84.0003042,53.7579731 83.4491224,52.4146011 82.3473259,51.3182472 C81.2449623,50.2224572 80.2299259,49.6054761 79.3027837,49.46674 C78.9266532,49.4875504 78.7200111,49.6581959 78.6824439,49.9778541 L78.676183,50.0899247 L78.676183,70.0589065 C78.676183,70.8665088 78.3807451,71.5584976 77.788735,72.134873 C77.1978591,72.7123763 76.5071806,73 75.7184009,73 C74.9063718,73 74.2100228,72.7123763 73.6304881,72.134873 C73.1031228,71.6108954 72.8157033,70.9913694 72.7678036,70.2762952 L72.7606189,70.0589065 L72.7606189,59.7602854 C71.9729733,61.5114063 70.8405556,63.1254829 69.3531586,64.5991315 C66.1918022,67.7302823 62.4208568,69.2952937 58.0391885,69.2952937 C53.6314354,69.2952937 49.8536853,67.7302823 46.7059383,64.5991315 C45.758949,63.6573048 44.957127,62.6573894 44.2948015,61.6022051 C43.8247092,62.3218284 43.2723933,63.0093055 42.6185738,63.6561769 C40.2868253,65.9633703 38.5062587,67.0478809 37.2768738,66.9091447 C36.1310451,67.0409441 35.5292292,66.6306785 35.4719121,65.6797985 L35.4673871,65.5251671 L35.4673871,62.4103714 C35.4673871,61.6258918 35.8155616,61.1876886 36.5113435,61.0951978 C36.9519487,60.9107802 37.6772178,60.3107182 38.6865836,59.2955757 C39.6959494,58.2804331 40.2000652,56.9652596 40.2000652,55.350619 C40.2000652,53.7579731 39.6488835,52.4146011 38.5470869,51.3182472 C37.4447234,50.2224572 36.429687,49.6054761 35.5019777,49.46674 C35.1263575,49.4875504 34.9197664,49.6581959 34.8822044,49.9778541 L34.8759441,50.0899247 L34.8759441,70.0589065 C34.8759441,70.8665088 34.5805061,71.5584976 33.9890631,72.134873 C33.3976201,72.7123763 32.7069417,73 31.918162,73 C31.1061328,73 30.4097838,72.7123763 29.8302491,72.134873 C29.3028838,71.6108954 29.0154643,70.9913694 28.9675646,70.2762952 L28.9603799,70.0589065 L28.9603799,46.5256464 C28.9603799,45.7411668 29.2501473,45.0542537 29.8302491,44.466035 C30.3570989,43.930778 30.9804893,43.6392858 31.6995684,43.5907108 L31.918162,43.583425 L34.2845011,43.583425 C37.5088011,43.583425 40.2868253,44.7429433 42.6185738,47.0614161 C42.772814,47.2148154 42.9089082,47.3755463 43.0529413,47.5334574 C43.6818103,45.9419395 44.5885383,44.4587034 45.7748267,43.0826213 L45.7674549,43.0112089 L45.7674549,43.0112089 L45.7617843,42.9393734 L45.7617843,31.0232919 L43.3954452,31.0232919 C42.5828491,31.0232919 41.8870671,30.7356682 41.3075324,30.1581648 C40.7274305,29.5817895 40.4376632,28.8898006 40.4376632,28.0816344 C40.4376632,27.2977187 40.7274305,26.6113696 41.3075324,26.0225869 C41.8343821,25.4878426 42.457304,25.196397 43.1767239,25.1478262 L43.3954452,25.1405408 L45.7617843,25.1405408 L45.7617843,16.3155683 C45.7617843,15.5310887 46.0515517,14.8441756 46.6316535,14.2559569 C47.2111883,13.6677382 47.9069702,13.3733469 48.7195664,13.3733469 C49.5077791,13.3733469 50.1978904,13.6677382 50.7899005,14.2559569 C51.3275759,14.7907012 51.6206191,15.4070111 51.6694561,16.1040392 L51.6767815,16.3155683 L51.6767815,38.6391168 L51.7067647,38.6258636 L51.7067647,38.6258636 L51.7363227,38.6126103 L51.7658098,44.4677269 C51.2696328,44.8275386 50.7893334,45.2251361 50.3322835,45.6825142 C48.191067,47.823901 47.1215929,50.3724727 47.1215929,53.3282294 C47.1215929,56.3093647 48.191067,58.8641401 50.3322835,60.9925556 C52.4723659,63.1215351 55.0417122,64.1857429 58.0391885,64.1857429 C61.0100129,64.1857429 63.5725546,63.1215351 65.7262464,60.9925556 C67.8799382,58.8641401 68.956217,56.3093647 68.956217,53.3282294 C68.956217,50.3724727 67.8799382,47.823901 65.7262464,45.6825142 C65.4740467,45.4312664 65.2138727,45.2003215 64.9490737,44.981352 L64.682857,44.766066 L64.682857,31.533119 L64.6618758,31.533119 L64.6618758,16.0685503 C64.6618758,15.2840707 64.9516432,14.5971576 65.531745,14.0089389 C66.0585948,13.4741946 66.6815166,13.1822829 67.4009365,13.1336274 L67.6196579,13.1263288 L73.5352221,13.1263288 Z M58.0388482,45.3365761 C60.2322342,45.3365761 62.119408,46.1233116 63.7015039,47.6962186 C65.2830327,49.2696895 66.0746477,51.1465753 66.0746477,53.3280038 C66.0746477,55.5218397 65.2830327,57.4026732 63.7015039,58.9693765 C62.119408,60.5366438 60.2322342,61.3194315 58.0388482,61.3194315 C55.832987,61.3194315 53.9424108,60.5366438 52.3665526,58.9693765 C50.7912614,57.4026732 50.0030488,55.5218397 50.0030488,53.3280038 C50.0030488,51.1465753 50.7912614,49.2696895 52.3665526,47.6962186 C53.9424108,46.1233116 55.832987,45.3365761 58.0388482,45.3365761 Z M58.0388482,49.4591828 C56.9705082,49.4591828 56.0558413,49.8409892 55.2931464,50.604038 C54.5304514,51.3670868 54.1488204,52.2750754 54.1488204,53.3280038 C54.1488204,54.3899557 54.5304514,55.3007642 55.2931464,56.0587373 C56.0558413,56.8178383 56.9705082,57.1968249 58.0388482,57.1968249 C59.0975482,57.1968249 60.0105139,56.8178383 60.7777454,56.0587373 C61.5449768,55.3007642 61.9288761,54.3899557 61.9288761,53.3280038 C61.9288761,52.2750754 61.5449768,51.3670868 60.7777454,50.604038 C60.0105139,49.8409892 59.0975482,49.4591828 58.0388482,49.4591828 Z M75.7184009,45.0367707 C75.2312969,45.0367707 74.8598729,45.1698672 74.6052632,45.4354962 C74.3814874,45.667428 74.2562647,45.974491 74.2284556,46.357063 L74.2224981,46.5256464 L75.7184009,48.0133942 C76.1822556,48.0133942 76.5480089,47.8870654 76.8145269,47.6327158 C77.0810448,47.3789302 77.2148708,47.0095311 77.2148708,46.5256464 C77.2148708,46.0637566 77.0810448,45.7005611 76.8145269,45.4354962 C76.5480089,45.1698672 76.1822556,45.0367707 75.7184009,45.0367707 Z M97.042785,14.3178242 C97.8309976,14.3178242 98.521676,14.6122155 99.113119,15.2004343 C99.704562,15.788653 100,16.4755661 100,17.2594817 C100,18.067648 99.704562,18.7596368 99.113119,19.3360122 C98.521676,19.9129515 97.8309976,20.2011392 97.042785,20.2011392 L97.042785,20.2011392 L94.0850029,20.2011392 L94.0850029,40.7933057 C94.0850029,41.600908 93.7889978,42.2934608 93.1975548,42.8698362 C92.6055448,43.4467755 91.9154334,43.7349632 91.1272208,43.7349632 C90.3146246,43.7349632 89.6188427,43.4467755 89.0393079,42.8698362 C88.458639,42.2934608 88.1694387,41.600908 88.1694387,40.7933057 L88.1694387,40.7933057 L88.1694387,20.2011392 L85.2110895,20.2011392 C84.3990604,20.2011392 83.7032785,19.9129515 83.1237437,19.3360122 C82.5430748,18.7596368 82.2538745,18.067648 82.2538745,17.2594817 C82.2538745,16.4755661 82.5430748,15.788653 83.1237437,15.2004343 C83.7032785,14.6122155 84.3990604,14.3178242 85.2110895,14.3178242 L85.2110895,14.3178242 Z M58.0389049,13 C58.9444989,13 59.737248,13.3378169 60.4165852,14.0140146 C61.0959224,14.6890844 61.4355911,15.4780757 61.4355911,16.3787328 L61.4355911,16.3787328 L61.4355911,31.533119 L61.4146099,31.533119 L61.4146099,42.9952063 C60.3542087,42.6506218 59.2308639,42.470152 58.0389049,42.470152 C56.8418424,42.470152 55.7156624,42.6489299 54.6552612,42.9906945 L54.6552612,42.9906945 L54.6552612,31.4958971 L54.6422188,31.4958971 L54.6422188,16.3787328 C54.6422188,15.4780757 54.9745157,14.6890844 55.6413776,14.0140146 C56.3065383,13.3378169 57.1060922,13 58.0389049,13 Z M29.7894775,13.3737416 C30.5776901,13.3737416 31.2683686,13.667569 31.8598116,14.2563517 C32.4512546,14.8445704 32.7472596,15.5309195 32.7472596,16.3153991 C32.7472596,17.1235654 32.4512546,17.8155542 31.8598116,18.3919296 C31.3221361,18.9164199 30.7024479,19.2022725 30.0020251,19.2499111 L29.7894775,19.2570567 L23.8739133,19.2570567 C23.0613171,19.2570567 22.3655352,19.550884 21.7854334,20.1396667 C21.2058986,20.7278854 20.9161312,21.4147985 20.9161312,22.1987142 C20.9161312,23.0068804 21.2058986,23.6988692 21.7854334,24.2752446 C22.3655352,24.852184 23.0613171,25.1403717 23.8739133,25.1403717 C26.2861842,25.1403717 28.3627559,26.0117023 30.1024943,27.7532358 C31.8422327,29.4953332 32.7121019,31.566224 32.7121019,33.9653442 C32.7121019,36.3875871 31.8422327,38.4646815 30.1024943,40.1949356 C28.441835,41.8465417 26.4639339,42.7098813 24.1692845,42.7849543 L23.8393227,42.7903167 L17.9583491,42.7903167 C17.145753,42.7903167 16.449971,42.502129 15.8698692,41.9251896 C15.2903344,41.3488143 15,40.6568254 15,39.8492231 C15,39.0647435 15.2903344,38.3778304 15.8698692,37.7896117 C16.3972345,37.2543547 17.0202032,36.9628625 17.7396274,36.9142875 L17.9583491,36.9070017 L23.8393227,36.9070017 C24.6513518,36.9070017 25.3471338,36.618814 25.9272356,36.0418746 C26.5062033,35.4654993 26.7965377,34.7735104 26.7965377,33.9653442 C26.7965377,33.1814285 26.5062033,32.4945154 25.9272356,31.9062967 C25.3471338,31.318078 24.6513518,31.0236867 23.8393227,31.0236867 C21.4259177,31.0236867 19.349913,30.1585596 17.6101746,28.4283056 C15.8698692,26.6974875 15,24.621521 15,22.1987142 C15,19.79903 15.8698692,17.7287032 17.6101746,15.9866058 C19.270834,14.3242329 21.248735,13.4547515 23.5438777,13.3791424 L23.8739133,13.3737416 L29.7894775,13.3737416 Z M36.8880411,13.3736852 C37.6768208,13.3736852 38.3669322,13.6675126 38.9583752,14.2562953 C39.5503852,14.844514 39.8458232,15.5314271 39.8458232,16.3153428 L39.8458232,16.3153428 L39.8458232,39.8486028 C39.8458232,40.656769 39.5503852,41.3487579 38.9583752,41.9251332 C38.3669322,42.5020726 37.6768208,42.7902603 36.8880411,42.7902603 C36.0754449,42.7902603 35.379663,42.5020726 34.8001282,41.9251332 C34.2200264,41.3487579 33.930259,40.656769 33.930259,39.8486028 L33.930259,39.8486028 L33.930259,16.3153428 C33.930259,15.5314271 34.2200264,14.844514 34.8001282,14.2562953 C35.379663,13.6675126 36.0754449,13.3736852 36.8880411,13.3736852 Z M58.0184908,14.7578885 C57.0250027,14.7578885 56.2197782,15.5587232 56.2197782,16.5473592 C56.2197782,17.5354313 57.0250027,18.336266 58.0184908,18.336266 C59.011979,18.336266 59.8177704,17.5354313 59.8177704,16.5473592 C59.8177704,15.5587232 59.011979,14.7578885 58.0184908,14.7578885 Z" id="Combined-Shape"></path>
        </g>
    </g>
</svg>